<svg width="500" height="500" viewBox="0 0 500 500" fill="none" xmlns="http://www.w3.org/2000/svg">
<rect width="500" height="500" fill="#49C43E"/>
<path d="M151.288 195.367L151.283 195.361C144.555 189.208 140.611 182.402 137.643 172.26C136.085 166.767 135.836 163.833 135.836 153.719C135.877 148.385 136.353 141.47 136.985 135.608C137.301 132.677 137.655 130.015 138.012 127.951C138.19 126.919 138.368 126.042 138.541 125.358C138.716 124.666 138.874 124.221 138.999 124.006C139.106 123.844 139.303 123.701 139.595 123.606C139.89 123.511 140.248 123.478 140.611 123.514C141.383 123.59 141.943 123.939 142.091 124.334L142.095 124.345L142.1 124.355C142.098 124.351 142.098 124.352 142.099 124.359C142.103 124.379 142.115 124.442 142.123 124.572C142.133 124.731 142.135 124.946 142.128 125.213C142.114 125.746 142.066 126.458 141.989 127.299C141.834 128.978 141.566 131.147 141.235 133.381C140.275 139.268 139.797 146.788 139.797 153.696C139.797 160.59 140.273 166.939 141.247 170.455C143.339 178.153 147.107 185.533 151.57 190.502L151.57 190.502C156.229 195.669 163.931 199.709 174.476 202.616C185.029 205.526 198.48 207.314 214.694 207.937M151.288 195.367L214.713 207.438M151.288 195.367L157.1 200.847L157.247 200.985L157.257 201.186L157.506 206.167L157.506 206.176C157.917 219.073 164.246 231.713 173.663 238.838L173.661 238.836L173.364 239.238L173.665 238.84L177.48 241.659L177.683 241.809V242.061V257.09C177.683 265.184 177.891 270.443 178.549 274.593C179.203 278.725 180.305 281.769 182.113 285.428M151.288 195.367L182.113 285.428M214.694 207.937L214.713 207.438M214.694 207.937C214.693 207.937 214.693 207.937 214.693 207.937L214.713 207.438M214.694 207.937C223.205 208.27 228.884 208.148 233.193 207.274C237.534 206.393 240.475 204.75 243.521 202.085L243.523 202.084C244.383 201.326 245.137 200.74 245.779 200.323C246.428 199.902 246.934 199.672 247.304 199.592C247.667 199.514 247.81 199.594 247.878 199.664C247.975 199.763 248.089 200.009 248.089 200.546C248.089 200.581 248.069 200.693 247.975 200.896C247.887 201.086 247.752 201.315 247.576 201.569C247.224 202.077 246.73 202.652 246.173 203.169L246.168 203.174C245.692 203.629 245.311 204.003 245.036 204.326C244.765 204.644 244.549 204.964 244.469 205.313C244.382 205.696 244.474 206.038 244.656 206.354C244.825 206.647 245.089 206.948 245.396 207.276M214.713 207.438C231.734 208.102 237.214 206.94 243.192 201.709C246.679 198.637 248.589 198.221 248.589 200.546C248.589 201.127 247.676 202.456 246.513 203.535C244.604 205.362 244.521 205.611 245.766 206.94M245.396 207.276C245.394 207.274 245.392 207.272 245.391 207.27L245.766 206.94M245.396 207.276C245.398 207.278 245.399 207.28 245.401 207.282L245.766 206.94M245.396 207.276C246.256 208.255 246.342 208.963 246.099 209.443C245.824 209.984 245.014 210.524 243.427 210.85M245.766 206.94C247.593 209.015 246.763 210.676 243.524 211.34C237.38 212.503 216.124 212.835 204.998 211.921M204.998 211.921L205.043 211.423C205.042 211.423 205.041 211.423 205.041 211.423M204.998 211.921C191.049 210.676 173.197 207.521 166.804 205.113M204.998 211.921L205.039 211.423C205.04 211.423 205.04 211.423 205.041 211.423M243.427 210.85C243.429 210.849 243.43 210.849 243.431 210.849L243.524 211.34L243.424 210.85C243.425 210.85 243.426 210.85 243.427 210.85ZM243.427 210.85C240.402 211.421 233.597 211.795 226.122 211.909C218.657 212.023 210.581 211.878 205.041 211.423M205.041 211.423C198.083 210.802 190.148 209.704 183.155 208.461C176.151 207.216 170.132 205.832 166.982 204.646M166.804 205.113L166.985 204.647C166.984 204.646 166.983 204.646 166.982 204.646M166.804 205.113C164.23 204.117 161.905 203.535 161.656 203.784L239.041 247.126M166.804 205.113L166.98 204.645C166.981 204.645 166.982 204.645 166.982 204.646M166.982 204.646C165.681 204.142 164.439 203.742 163.482 203.497C163.006 203.375 162.587 203.289 162.263 203.25C162.103 203.231 161.947 203.221 161.811 203.23C161.743 203.235 161.665 203.245 161.586 203.268C161.513 203.289 161.4 203.333 161.303 203.431L161.268 203.466L161.24 203.507C161.175 203.604 161.151 203.707 161.14 203.755C161.127 203.818 161.118 203.885 161.112 203.951C161.099 204.083 161.094 204.247 161.094 204.433C161.094 204.808 161.116 205.308 161.158 205.896C161.242 207.072 161.409 208.622 161.66 210.254L161.661 210.256C164.438 227.844 177.154 240.513 197.234 245.701L197.235 245.701C203.114 247.213 206.659 247.46 221.601 247.543H221.602L238.541 247.624M238.541 247.624V247.126H239.041M238.541 247.624L239.038 247.626L239.041 247.126M238.541 247.624V249.202C238.541 249.726 238.522 249.989 238.439 250.17C238.38 250.299 238.258 250.447 237.827 250.598C237.38 250.755 236.683 250.885 235.583 251.018C234.492 251.149 233.043 251.278 231.111 251.444M239.041 247.126V249.202C239.041 251.195 238.875 251.278 231.153 251.942M231.111 251.444L231.153 251.942M231.111 251.444C215.215 252.769 197.451 250.858 187.088 246.581L187.079 246.577L187.079 246.577L182.18 244.668L181.482 244.396L181.499 245.145L181.831 260.256L181.831 260.257C182.038 269.177 182.453 274.82 183.613 279.019C184.784 283.255 186.71 286.005 189.864 289.16M231.111 251.444C231.111 251.444 231.11 251.444 231.11 251.444L231.153 251.942M231.153 251.942L189.864 289.16M189.864 289.16C189.864 289.16 189.863 289.159 189.863 289.159L190.219 288.808L189.865 289.161C189.865 289.161 189.864 289.16 189.864 289.16ZM189.864 289.16C196.643 296.023 203.709 298.191 228.428 301.509M189.864 289.16L186.898 247.043L182.503 245.33L182.499 245.123L181.999 245.134L181.817 245.599L182.011 245.675L182.331 260.245C182.746 278.097 183.991 282.58 190.219 288.808C196.861 295.533 203.753 297.692 228.496 301.013M228.428 301.509C228.428 301.509 228.428 301.509 228.428 301.509L228.496 301.013M228.428 301.509C228.429 301.509 228.429 301.509 228.429 301.509L228.496 301.013M228.428 301.509C232.367 302.048 236.054 302.628 238.815 303.134C240.197 303.388 241.341 303.622 242.167 303.823C242.581 303.923 242.907 304.013 243.139 304.09C243.256 304.129 243.34 304.162 243.397 304.188C243.418 304.198 243.431 304.205 243.439 304.209M228.496 301.013C236.384 302.093 243.275 303.338 243.773 303.836C245.434 305.497 243.856 307.323 240.784 307.323C236.218 307.323 208.818 303.255 204.002 301.926M204.002 301.926L204.139 301.446C204.138 301.446 204.138 301.445 204.137 301.445M204.002 301.926C201.677 301.262 199.518 300.681 199.186 300.681C198.854 300.681 198.771 307.157 199.02 314.962M204.002 301.926L204.135 301.444C204.136 301.445 204.136 301.445 204.137 301.445M243.439 304.209C243.433 304.203 243.426 304.196 243.42 304.19C243.437 304.206 243.448 304.214 243.448 304.214C243.448 304.214 243.445 304.213 243.439 304.209ZM243.439 304.209C243.782 304.558 243.917 304.874 243.941 305.128C243.964 305.38 243.884 305.633 243.674 305.877C243.237 306.386 242.246 306.823 240.784 306.823C239.679 306.823 237.143 306.574 233.848 306.171C230.567 305.769 226.568 305.22 222.559 304.628C214.526 303.444 206.511 302.099 204.137 301.445M204.137 301.445C202.974 301.113 201.85 300.8 200.973 300.571C200.535 300.456 200.156 300.361 199.862 300.295C199.716 300.261 199.587 300.234 199.482 300.215C199.387 300.198 199.277 300.181 199.186 300.181C198.954 300.181 198.815 300.324 198.764 300.389C198.708 300.46 198.676 300.533 198.659 300.578C198.623 300.672 198.599 300.783 198.581 300.889C198.543 301.107 198.512 301.411 198.486 301.78C198.435 302.524 198.401 303.588 198.385 304.889C198.354 307.492 198.396 311.07 198.52 314.977M199.02 314.962L198.52 314.975C198.52 314.976 198.52 314.976 198.52 314.977M199.02 314.962C199.435 331.319 200.431 335.222 205.164 340.204C206.825 341.864 210.312 344.272 212.803 345.434M199.02 314.962L198.52 314.978C198.52 314.978 198.52 314.977 198.52 314.977M198.52 314.977C198.728 323.148 199.08 328.265 199.987 331.968C200.905 335.711 202.388 338.007 204.802 340.548L204.811 340.557L204.811 340.557C206.517 342.263 210.053 344.703 212.591 345.887M212.803 345.434L212.59 345.887C212.59 345.887 212.591 345.887 212.591 345.887M212.803 345.434C217.204 347.51 218.117 347.593 231.568 347.593C243.773 347.593 245.683 347.759 245.932 348.922M212.803 345.434L212.592 345.888C212.591 345.887 212.591 345.887 212.591 345.887M212.591 345.887C214.813 346.935 216.198 347.5 218.735 347.789C221.23 348.073 224.856 348.093 231.568 348.093C237.68 348.093 241.182 348.135 243.188 348.319C244.199 348.412 244.772 348.537 245.097 348.681C245.251 348.749 245.326 348.812 245.366 348.858C245.401 348.898 245.426 348.947 245.442 349.022M245.932 348.922L245.441 349.017C245.442 349.019 245.442 349.021 245.442 349.022M245.932 348.922C246.513 351.911 243.939 352.492 230.821 352.575M245.932 348.922L245.443 349.026C245.443 349.025 245.443 349.024 245.442 349.022M245.442 349.022C245.574 349.704 245.502 350.127 245.264 350.438C245.007 350.774 244.471 351.095 243.398 351.352C241.255 351.865 237.397 352.033 230.819 352.075M230.821 352.575V352.075C230.82 352.075 230.82 352.075 230.819 352.075M230.821 352.575C223.265 352.575 216.955 352.16 214.962 351.579C209.648 349.918 202.756 345.351 199.85 341.532M230.821 352.575L230.817 352.075C230.818 352.075 230.819 352.075 230.819 352.075M230.819 352.075C227.05 352.075 223.595 351.971 220.837 351.796C218.063 351.619 216.044 351.372 215.106 351.1M199.85 341.532L200.249 341.23M199.85 341.532L200.248 341.229C200.248 341.23 200.249 341.23 200.249 341.23M199.85 341.532C195.45 335.72 194.453 331.236 194.038 313.302L182.113 285.428M215.106 351.1C215.108 351.1 215.109 351.101 215.111 351.101L214.962 351.579L215.102 351.099C215.103 351.099 215.105 351.1 215.106 351.1ZM215.106 351.1C212.508 350.287 209.501 348.756 206.78 346.948C204.053 345.138 201.655 343.078 200.249 341.23M200.249 341.23C198.087 338.374 196.773 335.867 195.939 331.861C195.099 327.822 194.746 322.261 194.538 313.29L194.538 313.287C194.413 308.924 194.226 304.931 194.028 302.027C193.93 300.577 193.828 299.391 193.729 298.565C193.68 298.155 193.63 297.82 193.579 297.583C193.555 297.468 193.525 297.353 193.487 297.258C193.469 297.213 193.439 297.144 193.387 297.076C193.347 297.025 193.208 296.86 192.959 296.86C192.947 296.86 192.888 296.854 192.767 296.804C192.651 296.757 192.506 296.683 192.332 296.576C191.984 296.364 191.556 296.049 191.069 295.647C190.095 294.844 188.921 293.73 187.735 292.498C185.352 290.022 182.992 287.142 182.113 285.428M182.113 285.428C182.114 285.429 182.114 285.43 182.115 285.431L181.667 285.652L182.112 285.425C182.112 285.426 182.113 285.427 182.113 285.428Z" fill="white" stroke="white"/>
<path d="M374.88 136.703L374.88 136.703C374.797 142.584 374.026 151.095 373.018 158.908C372.013 166.707 370.762 173.874 369.707 177.041L369.707 177.042C365.175 190.552 356.76 199.141 343.654 203.594L343.653 203.594C336.219 206.1 318.412 209.676 308.175 210.758L308.173 210.758C303.325 211.255 300.355 211.355 297.684 210.432C295.016 209.511 292.701 207.587 289.099 204.234L289.092 204.227C287.816 202.992 286.543 201.883 285.521 201.086C285.009 200.687 284.568 200.372 284.226 200.159C284.054 200.052 283.916 199.977 283.812 199.93C283.736 199.895 283.7 199.886 283.693 199.884C283.281 199.888 283.199 200.02 283.169 200.095C283.108 200.248 283.107 200.584 283.344 201.167C283.804 202.299 284.994 203.945 286.888 205.839L286.891 205.843L290.711 209.745L291.598 210.652L290.331 210.594L286.677 210.428L286.676 210.428C285.823 210.387 285.191 210.367 284.715 210.388C284.229 210.409 283.972 210.472 283.832 210.547C283.731 210.6 283.668 210.669 283.621 210.842C283.565 211.051 283.547 211.355 283.547 211.838C283.547 212.682 283.673 213.012 283.962 213.244C284.131 213.38 284.39 213.51 284.805 213.637C285.218 213.764 285.754 213.879 286.455 214.003L286.457 214.003C287.33 214.162 289.349 214.307 291.93 214.411C294.497 214.514 297.583 214.577 300.566 214.577L300.569 214.577C308.868 214.618 319.357 213.337 329.08 211.338C338.813 209.338 347.722 206.63 352.887 203.843L352.889 203.841C354.144 203.172 355.32 202.605 356.22 202.224C356.668 202.034 357.058 201.886 357.359 201.796C357.508 201.751 357.652 201.715 357.778 201.698C357.84 201.69 357.914 201.684 357.99 201.689C358.056 201.694 358.18 201.711 358.301 201.791L358.349 201.823L358.389 201.866C358.51 201.995 358.566 202.156 358.596 202.272C358.63 202.4 358.651 202.545 358.664 202.697C358.69 203.003 358.688 203.394 358.665 203.849C358.62 204.762 358.488 205.993 358.289 207.443C357.892 210.347 357.223 214.172 356.428 218.184C354.842 226.187 352.739 235.006 351.267 238.752C350.642 240.446 349.664 241.639 347.742 242.649C345.862 243.638 343.062 244.459 338.791 245.455L338.788 245.455C324.889 248.618 315.558 249.784 300.749 250.283L300.749 250.283C293.127 250.533 288.874 250.783 286.664 251.327C285.544 251.604 285.108 251.921 284.949 252.201C284.802 252.462 284.806 252.856 285.089 253.583C285.088 253.583 285.088 253.582 285.088 253.582C285.09 253.582 285.135 253.65 285.351 253.751C285.58 253.857 285.919 253.962 286.376 254.058C287.287 254.249 288.575 254.386 290.172 254.468C293.36 254.633 297.705 254.577 302.554 254.328C312.253 253.831 323.911 252.567 332.263 250.789L332.263 250.789L332.271 250.787C333.975 250.455 335.559 250.163 336.741 249.975C337.33 249.881 337.827 249.811 338.192 249.776C338.372 249.759 338.533 249.748 338.662 249.749C338.725 249.75 338.796 249.753 338.864 249.765C338.899 249.771 338.945 249.781 338.995 249.799C339.039 249.816 339.121 249.852 339.197 249.928C339.287 250.018 339.328 250.122 339.346 250.172C339.368 250.234 339.383 250.297 339.394 250.354C339.415 250.469 339.429 250.608 339.438 250.76C339.457 251.067 339.461 251.482 339.452 251.983C339.435 252.988 339.368 254.378 339.264 256.025C339.056 259.321 338.698 263.668 338.282 268.066C337.867 272.465 337.394 276.92 336.958 280.433C336.739 282.189 336.53 283.713 336.34 284.879C336.245 285.462 336.155 285.96 336.07 286.354C335.989 286.73 335.907 287.047 335.819 287.253C335.502 288.063 334.931 288.957 334.289 289.738C333.65 290.516 332.906 291.224 332.219 291.639C332.014 291.773 331.675 291.927 331.259 292.095C330.823 292.271 330.262 292.477 329.595 292.708C328.259 293.17 326.48 293.738 324.385 294.372C320.196 295.64 314.731 297.178 308.997 298.674C299.607 301.167 294.419 302.593 291.545 303.592C290.102 304.094 289.291 304.472 288.83 304.798C288.606 304.957 288.481 305.091 288.407 305.206C288.336 305.317 288.296 305.431 288.274 305.574C288.203 306.032 288.259 306.459 288.389 306.785C288.514 307.098 288.687 307.272 288.839 307.341C288.851 307.342 288.873 307.342 288.907 307.342C288.992 307.34 289.114 307.331 289.277 307.313C289.6 307.276 290.047 307.207 290.609 307.106C291.732 306.906 293.284 306.586 295.154 306.171C298.894 305.342 303.891 304.14 309.242 302.771C314.599 301.359 319.561 300.093 323.227 299.179C325.06 298.722 326.569 298.353 327.642 298.098C328.178 297.971 328.607 297.871 328.913 297.804C329.066 297.77 329.191 297.744 329.285 297.725C329.331 297.716 329.373 297.708 329.409 297.703L329.409 297.703C329.434 297.699 329.489 297.69 329.544 297.69C329.799 297.69 329.964 297.845 330.044 297.951C330.124 298.056 330.173 298.178 330.207 298.28C330.275 298.491 330.322 298.769 330.357 299.082C330.427 299.719 330.458 300.619 330.456 301.703C330.454 303.876 330.323 306.849 330.105 310.066C329.669 316.495 328.878 323.954 328.041 328.016L328.04 328.019C326.42 335.661 324.606 340.331 320.421 343.161C318.34 344.568 315.708 345.496 312.302 346.142C308.897 346.789 304.686 347.158 299.429 347.428L299.429 347.428C294.518 347.678 291.477 348.031 289.791 348.616C288.947 348.909 288.543 349.227 288.371 349.525C288.214 349.798 288.191 350.164 288.412 350.734L288.412 350.734L288.414 350.739C288.519 351.021 288.618 351.161 288.784 351.268C288.977 351.391 289.319 351.504 289.997 351.569C291.353 351.7 293.758 351.62 298.218 351.411C307.588 350.955 314.25 349.961 319.022 348.183C323.768 346.415 326.629 343.878 328.432 340.312C329.811 337.514 331.129 332.674 332.165 326.801C333.199 320.939 333.944 314.091 334.192 307.305L334.192 307.302C334.44 301.47 334.586 298.391 334.958 296.456C335.148 295.472 335.399 294.758 335.763 294.116C336.121 293.484 336.578 292.942 337.136 292.301C338.698 290.458 339.636 288.854 340.367 285.272C341.106 281.647 341.624 276.036 342.33 266.188L342.33 266.184C342.704 261.41 343.057 257.049 343.327 253.882C343.462 252.299 343.576 251.012 343.662 250.121C343.705 249.676 343.741 249.326 343.769 249.086C343.783 248.967 343.796 248.87 343.807 248.799C343.813 248.766 343.819 248.727 343.828 248.691C343.832 248.677 343.84 248.642 343.857 248.602C343.864 248.585 343.883 248.539 343.921 248.489L343.921 248.488C343.931 248.475 343.968 248.427 344.032 248.38C344.077 248.347 344.116 248.327 344.126 248.322L344.128 248.321C344.144 248.313 344.161 248.304 344.179 248.296C344.196 248.288 344.213 248.28 344.23 248.273C344.301 248.241 344.394 248.202 344.504 248.158C344.726 248.069 345.033 247.951 345.401 247.811C345.638 247.721 345.9 247.622 346.182 247.515C346.784 247.288 347.478 247.025 348.212 246.743C350.732 245.767 352.529 244.493 353.529 242.879C355.225 240.092 357.162 234.044 358.812 226.818C360.458 219.614 361.803 211.316 362.34 204.08L362.341 204.078C362.589 200.888 362.82 198.905 363.273 197.383C363.735 195.833 364.422 194.778 365.521 193.425C368.629 189.498 372.09 182.502 373.819 176.82C375.629 170.814 377.224 159.071 378.054 148.427C378.469 143.11 378.691 138.087 378.655 134.212C378.637 132.273 378.554 130.633 378.401 129.392C378.324 128.771 378.231 128.262 378.124 127.87C378.013 127.464 377.901 127.237 377.816 127.135L377.811 127.13L377.807 127.124C377.431 126.645 376.741 126.234 376.086 126.025C375.762 125.922 375.485 125.881 375.293 125.89C375.244 125.893 375.208 125.897 375.182 125.903C375.18 125.923 375.178 125.945 375.176 125.969C375.164 126.123 375.151 126.346 375.137 126.632C375.108 127.204 375.077 128.015 375.046 129.01C374.984 131 374.922 133.716 374.88 136.703Z" fill="white" stroke="white"/>
<path d="M187.75 131.048L187.754 131.049C195.623 131.465 203.638 132.464 210.626 133.828C217.603 135.191 223.593 136.924 227.391 138.823C233.729 141.992 237.44 147.979 239.448 158.102C239.983 160.697 240.71 162.46 241.466 163.346C241.839 163.784 242.17 163.951 242.441 163.972C242.701 163.992 243.028 163.885 243.42 163.493C243.505 163.408 243.613 163.211 243.693 162.832C243.77 162.465 243.808 161.987 243.803 161.41C243.793 160.256 243.612 158.768 243.283 157.115C242.626 153.809 241.393 149.908 239.839 146.8L239.837 146.796C238.076 143.192 235.998 140.388 233.353 138.169C230.707 135.948 227.471 134.294 223.366 133.022L223.365 133.022C213.862 130.047 199.79 127.645 187.787 127.066C183.084 126.857 180.463 126.777 178.953 126.888C178.195 126.944 177.779 127.046 177.535 127.166C177.332 127.267 177.235 127.386 177.149 127.582C176.861 128.366 176.774 128.855 176.853 129.191C176.918 129.462 177.122 129.741 177.807 130.001C178.504 130.267 179.592 130.47 181.23 130.635C182.859 130.8 184.99 130.924 187.75 131.048Z" fill="white" stroke="white"/>
<path d="M320.494 133.868L320.492 133.868C311.402 135.362 304.726 136.565 300.025 137.548C297.674 138.04 295.823 138.476 294.412 138.866C292.994 139.257 292.05 139.594 291.497 139.88L291.493 139.882C284.635 143.351 280.13 151.218 279.227 161.069L279.227 161.069L279.227 161.076C279.018 163.079 278.965 164.26 279.078 164.984C279.133 165.336 279.221 165.536 279.316 165.662C279.406 165.782 279.531 165.874 279.739 165.954L279.739 165.954L279.745 165.957C280.167 166.125 280.52 166.125 280.827 166.011C281.144 165.892 281.469 165.63 281.784 165.172C282.421 164.245 282.927 162.64 283.215 160.382C283.512 157.793 284.378 154.801 285.47 152.166C286.557 149.544 287.896 147.203 289.176 145.968L289.176 145.968L289.184 145.96C290.931 144.344 292.995 143.258 297.725 142.065C302.441 140.875 309.874 139.564 322.406 137.531C329.212 136.41 335.52 135.331 340.187 134.491C342.521 134.071 344.442 133.711 345.81 133.436C346.494 133.298 347.036 133.182 347.42 133.091C347.613 133.046 347.76 133.008 347.863 132.977C347.915 132.962 347.951 132.95 347.973 132.942C347.974 132.942 347.975 132.941 347.976 132.941C348.443 132.641 348.615 132.17 348.532 131.672C348.446 131.158 348.079 130.602 347.423 130.253C347.419 130.252 347.382 130.239 347.291 130.227C347.189 130.213 347.048 130.203 346.866 130.199C346.501 130.191 346.001 130.209 345.363 130.254C344.088 130.344 342.299 130.539 340.009 130.84C335.43 131.441 328.878 132.456 320.494 133.868Z" fill="white" stroke="white"/>
<path d="M140.816 322.518C138.574 318.2 137.577 312.056 136.913 300.1M140.816 322.518C143.057 326.919 148.537 332.731 152.855 335.305C155.097 336.633 156.425 337.962 156.425 338.958C156.425 342.694 151.693 341.283 144.635 335.388C140.317 331.817 139.985 332.233 141.895 338.543C145.465 350.25 146.628 367.936 144.386 376.654M140.816 322.518L140.372 322.748C140.372 322.748 140.371 322.748 140.371 322.747C140.371 322.746 140.37 322.746 140.37 322.745L140.816 322.518ZM136.913 300.1L144.386 376.654M136.913 300.1L136.523 290.59L136.913 300.1ZM144.386 376.654L143.902 376.529C143.902 376.529 143.902 376.529 143.902 376.528C143.902 376.528 143.902 376.528 143.902 376.528L144.386 376.654ZM149.173 292.423C150.771 293.108 151.982 293.642 152.883 294.094C153.794 294.551 154.337 294.9 154.639 295.202C154.912 295.474 154.953 295.669 154.921 295.882C154.879 296.162 154.699 296.526 154.342 297.093C154.192 297.327 153.808 297.535 153.009 297.542C152.233 297.549 151.205 297.363 149.994 296.986C147.579 296.235 144.551 294.765 141.593 292.793L149.173 292.423ZM149.173 292.423C143.528 290.064 139.468 286.851 136.009 281.959C133.863 279.013 132.464 276.345 131.481 272.792C130.502 269.255 129.939 264.855 129.44 258.459C129.024 253.549 128.777 250.938 128.147 248.497C127.517 246.059 126.501 243.777 124.505 239.537C124.505 239.536 124.505 239.535 124.504 239.534L120.272 230.737L120.219 230.629L120.222 230.508L120.471 220.135C120.471 220.134 120.471 220.133 120.471 220.132C120.555 214.082 120.567 211.094 119.557 208.303C118.543 205.503 116.492 202.877 112.278 197.621C98.849 181.021 91.8333 163.238 90.6642 142.954C90.4986 140.407 90.3025 138.353 90.0617 136.753C89.8192 135.143 89.5368 134.032 89.2161 133.348C88.8874 132.647 88.6188 132.58 88.4588 132.597C88.3354 132.609 88.1544 132.677 87.9065 132.861C87.6623 133.043 87.3827 133.316 87.0658 133.692C86.9754 133.807 86.8527 134.104 86.7486 134.663C86.6484 135.201 86.5779 135.904 86.5382 136.748C86.459 138.433 86.5047 140.628 86.6597 143.078C86.9698 147.977 87.7141 153.846 88.7455 158.591C91.7193 171.972 97.9156 185.271 105.673 195.34C108.098 198.412 111.382 202.891 113.241 205.425L113.404 205.648L113.407 205.652L116.562 210.053L116.655 210.183V210.344V221.719V232.893L120.587 240.757C120.587 240.757 120.588 240.757 120.588 240.758C122.494 244.528 123.534 246.689 124.183 249.038C124.831 251.385 125.082 253.903 125.455 258.377L125.455 258.382C125.913 264.699 126.243 268.258 126.796 271.024C127.346 273.772 128.117 275.746 129.483 278.892C130.612 281.444 131.254 283.109 131.689 286.004C132.119 288.868 132.348 292.945 132.68 300.324C133.427 314.437 133.758 316.608 135.634 321.503C136.625 323.898 137.189 325.425 137.387 326.708C137.59 328.028 137.402 329.065 136.976 330.468C136.579 331.781 136.422 332.834 136.601 334.515C136.783 336.227 137.313 338.579 138.311 342.486C139.35 346.477 139.959 349.182 140.306 352.207C140.652 355.227 140.734 358.552 140.734 363.784C140.734 369.497 140.715 372.59 140.418 374.75C140.116 376.955 139.522 378.201 138.434 380.21L149.173 292.423ZM124.119 398.136C124.119 398.137 124.12 398.137 124.12 398.137L123.877 398.574L124.118 398.136C124.119 398.136 124.119 398.136 124.119 398.136Z" fill="white" stroke="white"/>
<path d="M409.419 145.535L409.419 145.532C409.129 142.549 408.922 139.735 408.829 137.608C408.782 136.543 408.765 135.658 408.779 135.012C408.786 134.688 408.8 134.434 408.822 134.252C408.832 134.161 408.844 134.096 408.853 134.055C408.855 134.051 408.856 134.047 408.857 134.043L409.419 145.535ZM409.419 145.535C411.001 163.023 409.176 176.744 403.804 187.403L403.805 187.403L403.799 187.414C402.521 189.8 398.581 194.82 394.918 198.65L394.918 198.651C389.972 203.804 387.42 206.839 386.151 211.059C384.872 215.311 384.884 220.803 385.259 230.916M409.419 145.535L385.259 230.916M385.259 230.916C385.465 236.208 385.437 239.315 384.273 242.001C383.111 244.684 380.839 246.893 376.788 250.489L376.788 250.49C373.164 253.701 370.593 256.749 368.781 260.158C366.97 263.566 365.904 267.363 365.328 272.094C364.913 275.75 364.166 281.977 363.668 286.045L363.667 286.047C363.167 290.046 362.081 294.915 361.225 296.971L361.225 296.971L361.221 296.979C360.314 299.054 358.376 301.534 356.38 303.488C355.379 304.468 354.347 305.331 353.402 305.953C352.482 306.559 351.56 306.993 350.8 306.993C349.884 306.993 348.926 307.477 348.26 308.152C347.57 308.852 347.348 309.581 347.529 310.048L347.53 310.051C347.797 310.747 348.467 311.124 349.619 311.105C350.774 311.086 352.277 310.655 353.906 309.882C357.161 308.336 360.733 305.507 362.749 302.323L362.75 302.322L365.241 298.419L366.162 296.976V298.688V304.085V304.092L366.162 304.1C366.078 307.027 365.578 312.449 364.909 316.048C364.197 320.023 363.225 322.928 361.535 325.318C359.843 327.71 357.465 329.54 354.029 331.426L354.024 331.429C352.745 332.109 351.731 332.706 350.956 333.244C350.177 333.785 349.665 334.249 349.365 334.657C349.073 335.054 349.001 335.368 349.041 335.644C349.083 335.937 349.264 336.28 349.663 336.699C349.889 336.924 350.067 337.054 350.238 337.125C350.402 337.193 350.593 337.223 350.868 337.186C351.462 337.106 352.339 336.737 353.888 335.942C355.886 334.859 358.508 333.383 359.64 332.574C359.641 332.574 359.642 332.573 359.642 332.573L385.259 230.916Z" fill="white" stroke="white"/>
<path d="M325.356 368.543L325.355 368.544C323.598 372.728 321.245 376.688 318.95 379.153L318.949 379.155C318.028 380.136 317.323 381.021 316.827 381.79C316.328 382.565 316.062 383.194 315.984 383.668C315.909 384.127 316.016 384.381 316.188 384.537C316.388 384.719 316.787 384.872 317.504 384.872C318.689 384.872 320.221 383.961 321.917 382.07C323.587 380.207 325.327 377.491 326.933 374.116C328.676 370.38 331.499 364.403 333.244 360.829C336.664 353.49 341.271 349.169 346.067 349.169C347.694 349.169 348.798 348.901 349.431 348.475C349.738 348.269 349.926 348.033 350.025 347.774C350.125 347.513 350.15 347.189 350.062 346.786L350.059 346.773L350.057 346.759C350.016 346.501 349.761 346.185 349.107 345.903C348.477 345.631 347.599 345.449 346.595 345.383C344.581 345.252 342.21 345.6 340.571 346.458C334.514 349.689 331.249 354.35 325.356 368.543Z" fill="white" stroke="white"/>
<path d="M180.064 353.718L180.064 353.718L180.059 353.724C179.697 354.162 179.528 354.525 179.485 354.82C179.445 355.096 179.508 355.356 179.711 355.628C179.925 355.915 180.298 356.218 180.877 356.525C181.452 356.83 182.203 357.125 183.138 357.41C188.143 358.878 192.463 363.177 198.607 372.476L198.608 372.478C204.895 382.074 210.717 387.532 216.963 389.886C219.988 391.004 222.137 391.464 223.5 391.34C224.169 391.279 224.59 391.083 224.845 390.815C225.097 390.55 225.256 390.145 225.256 389.524C225.256 388.73 225.133 388.409 224.853 388.173C224.69 388.036 224.442 387.903 224.05 387.766C223.659 387.629 223.154 387.5 222.497 387.356C218.404 386.512 215.191 385.132 211.983 382.434C208.793 379.75 205.627 375.779 201.595 369.794C197.654 363.986 194.736 360.275 191.913 357.798C189.109 355.338 186.384 354.084 182.796 353.228L182.787 353.225L182.778 353.223C181.39 352.837 180.556 353.104 180.064 353.718Z" fill="white" stroke="white"/>
</svg>
