<svg width="500" height="500" viewBox="0 0 500 500" fill="none" xmlns="http://www.w3.org/2000/svg">
<rect width="500" height="500" fill="#5D47E4"/>
<path d="M295.911 75.2554C294.769 76.6607 295.999 80.6132 301.532 92.734C306.978 104.679 316.288 118.732 324.72 127.691L328.585 131.907L323.578 143.94C320.768 150.615 317.694 157.905 316.727 160.189C314.795 164.844 308.823 170.904 304.167 172.837C300.918 174.242 291.871 176.35 230.477 190.403C214.403 194.092 202.019 198.132 191.655 203.139C169.697 213.766 151.077 231.069 141.854 249.514C128.065 276.83 113.572 339.454 106.194 403.307C105.228 411.739 104.262 419.995 104.087 421.489C103.823 423.333 104.174 424.826 104.965 425.704C108.127 428.779 109.444 426.495 110.586 416.394C116.471 363.344 124.903 318.462 135.53 283.241C138.692 272.701 143.874 258.56 146.334 253.554C157.84 230.63 181.554 211.57 210.714 201.909C215.809 200.24 238.557 194.619 261.218 189.437C283.966 184.343 304.519 179.16 306.89 178.107C312.511 175.559 317.342 171.343 319.977 166.688C321.119 164.756 324.544 157.115 327.531 149.912C330.517 142.622 333.152 136.65 333.24 136.474C333.328 136.299 336.05 138.143 339.212 140.602C354.144 151.845 371.71 158.432 387.696 158.608C394.459 158.696 394.722 158.608 394.986 156.588C395.425 153.865 393.932 152.987 388.574 152.987C382.601 152.987 369.602 150.088 362.839 147.278C338.158 137.177 317.079 114.428 304.255 84.0386C302.411 79.647 300.566 75.6068 300.039 74.9919C298.898 73.5866 297.229 73.6745 295.911 75.2554Z" fill="white"/>
<path d="M363.718 188.295C363.103 188.91 362.664 189.876 362.664 190.403C362.664 191.808 379.791 204.368 384.007 206.125C387.959 207.794 393.756 207.794 395.074 206.213C396.918 204.017 395.161 202.436 389.891 201.382C385.676 200.504 383.128 199.186 375.838 193.828C370.832 190.227 366.353 187.241 365.826 187.241C365.211 187.241 364.332 187.68 363.718 188.295Z" fill="white"/>
<path d="M318.572 216.928C317.342 217.719 314.619 220.529 312.599 223.076C308.559 228.171 307.944 228.522 287.567 237.832C269.035 246.44 267.893 246.44 260.251 238.623C254.191 232.562 249.799 230.542 244.705 231.596C240.226 232.562 219.761 244.156 216.95 247.494C213.261 251.622 212.91 255.135 214.667 269.1C215.545 275.776 215.984 281.485 215.721 281.748C215.457 282.099 213.174 281.836 210.714 281.221C201.404 279.025 190.425 282.539 183.399 290.004C176.372 297.47 177.25 293.693 163.636 377.836C156.259 423.772 156.171 424.563 157.225 425.792C158.454 427.285 160.123 427.373 161.353 425.88C161.792 425.353 164.603 409.807 167.589 391.45C180.588 310.206 181.73 303.706 183.486 300.017C184.453 297.997 186.034 295.713 186.912 294.923C188.405 293.518 189.371 294.22 205.971 309.415C215.633 318.198 223.538 326.015 223.713 326.806C224.153 329.441 218.444 336.819 213.261 340.244C203.161 346.831 200.35 352.804 197.013 374.674C195.871 382.403 194.29 392.328 193.587 396.72C189.196 424.563 189.196 424.299 190.601 425.792C192.445 427.549 194.641 426.495 195.256 423.684C195.871 420.962 199.208 399.618 202.37 378.627C205.796 356.054 207.465 351.926 215.545 346.217C222.396 341.386 226.085 337.17 229.071 330.846C231.706 325.313 234.078 316.09 234.605 309.327L234.868 306.341L246.286 317.671C269.21 340.508 292.398 370.37 307.944 397.335C314.444 408.577 319.714 411.915 329.287 411.037C336.577 410.334 339.388 407.699 349.049 392.68C358.535 377.836 361.434 371.688 362.576 363.52C363.454 357.108 360.643 282.714 359.062 272.438C357.745 263.391 354.583 256.365 342.989 236.427C332.274 217.982 329.902 215.347 324.105 215.347C322.349 215.347 319.889 216.05 318.572 216.928ZM328.409 223.867C329.375 225.184 334.733 234.143 340.266 243.805C353.09 266.29 353.353 267.431 354.671 296.152C355.198 308.01 356.076 326.806 356.603 337.873C357.921 366.769 357.569 368.438 344.746 388.376C336.49 401.375 333.152 404.976 329.463 405.24C321.119 405.679 319.099 404.273 312.16 392.592C294.418 362.993 275.622 338.927 251.38 314.685L236.098 299.402L235.834 281.309C235.571 267.168 235.132 261.195 233.638 253.993C232.672 248.987 232.057 244.595 232.497 244.244C232.848 243.893 235.922 242.136 239.435 240.379C247.692 236.076 250.414 236.427 255.596 242.575C257.617 244.947 260.954 247.757 262.974 248.723C269.649 251.973 272.372 251.358 293.013 241.872L311.897 233.353L316.64 227.38C322.261 220.529 325.071 219.651 328.409 223.867ZM227.754 255.135C229.598 264.533 231.003 282.978 230.301 288.95L229.774 293.605L226.261 289.916L222.659 286.228L221.166 273.843C218.883 255.662 218.971 253.818 222.22 250.568C223.713 249.075 225.207 247.845 225.558 247.845C225.997 247.845 226.963 251.095 227.754 255.135ZM212.559 287.984C218.883 290.004 224.855 295.889 226.963 302.213C228.544 307.044 228.456 317.408 226.875 318.989C225.997 319.779 194.465 291.322 194.465 289.741C194.465 288.423 199.999 286.667 204.215 286.579C206.235 286.491 210.012 287.194 212.559 287.984Z" fill="white"/>
<path d="M297.668 255.486C294.857 256.013 268.244 268.486 264.994 270.769C260.515 274.019 258.319 280.606 259.812 286.315C260.515 288.687 264.028 293.693 270.967 301.949C281.858 314.949 292.047 329.002 295.56 335.853C297.844 340.42 300.391 341.386 301.972 338.4C303.728 335.238 291.871 317.32 275.446 298.085C270.264 292.112 265.873 286.403 265.521 285.437C264.643 282.714 265.873 278.147 268.069 276.215C271.055 273.492 296.79 261.722 300.83 261.283C304.958 260.756 316.64 262.952 320.768 265.06C322.261 265.851 326.652 269.715 330.341 273.668C336.138 279.816 337.28 280.606 338.685 279.816C339.564 279.289 340.354 278.235 340.53 277.532C340.881 275.688 327.97 262.162 323.93 260.054C316.991 256.54 304.167 254.345 297.668 255.486Z" fill="white"/>
<path d="M231.882 371.864C231.53 373.005 230.916 375.816 230.564 378.275C229.51 385.741 225.031 404.186 221.781 414.199C219.498 421.313 218.971 424.211 219.585 425.441C220.551 427.285 222.396 427.461 223.713 425.88C225.207 424.124 230.125 408.138 233.638 393.646L234.605 389.781L238.206 396.72C240.753 401.639 243.827 405.679 248.482 410.334C257.265 419.117 266.136 423.684 278.96 425.88C287.567 427.373 288.094 427.373 289.499 425.88C292.31 423.157 290.026 421.489 281.682 420.347C268.947 418.502 260.251 414.023 251.38 404.888C243.827 397.071 237.942 384.072 237.942 375.201C237.942 373.445 237.503 371.6 236.888 370.985C235.219 369.316 232.672 369.756 231.882 371.864Z" fill="white"/>
</svg>
