<svg width="500" height="500" viewBox="0 0 500 500" fill="none" xmlns="http://www.w3.org/2000/svg">
<rect width="500" height="500" fill="#4C88FB"/>
<path d="M244.86 129.841C236.399 133.501 227.425 138.306 225.117 140.365C220.246 144.025 218.964 153.405 222.81 155.464C224.092 156.15 224.604 161.183 223.835 166.445C223.322 171.936 223.835 177.655 225.117 179.257C227.938 183.146 265.372 195.958 277.422 197.33C283.32 198.017 287.422 199.847 288.191 202.363C292.037 214.26 294.857 235.765 294.857 254.296V275.572L284.089 271.454C267.679 265.277 254.859 263.904 239.988 266.65L226.656 269.166L214.348 258.414C196.4 243.086 185.119 239.196 158.966 239.196C141.531 239.196 134.608 240.34 124.353 244.687C107.687 251.55 102.815 256.355 107.943 260.93C111.276 263.904 112.815 263.676 120.507 258.642C125.635 255.44 136.403 251.779 144.864 250.407C172.555 245.831 192.042 252.008 211.015 271.454L222.553 283.122L234.347 279.232C256.398 271.683 278.448 277.402 306.139 297.535C328.446 313.778 336.907 310.117 317.677 292.73L307.165 283.122L306.652 253.838C306.395 234.621 304.601 217.691 301.524 205.566L296.652 187.035L282.294 185.891C266.91 184.748 235.886 175.368 235.886 171.936C235.886 170.792 237.937 167.818 240.245 165.53C244.091 161.641 244.091 160.955 238.706 154.32C235.373 150.431 233.322 146.999 233.835 146.542C234.091 146.313 242.039 142.653 250.757 138.763L267.166 131.442L281.525 142.424C289.73 148.601 300.498 156.379 306.139 160.04C313.062 164.615 318.446 171.478 324.343 182.917C328.958 191.84 338.445 208.312 345.624 219.293C364.854 249.491 382.033 303.483 382.033 334.825C382.033 350.611 368.444 358.16 339.727 358.16C332.804 358.16 322.292 359.304 316.651 360.448C277.679 368.913 251.783 367.769 212.554 355.644C189.478 348.781 167.684 346.95 155.12 351.297C142.044 355.644 149.223 359.304 172.043 359.533C187.683 359.762 196.657 361.135 205.118 364.566C221.015 370.972 252.552 376.463 273.833 376.463C283.576 376.463 302.293 374.404 315.626 371.887C328.958 369.371 345.112 367.312 351.778 367.312C366.649 367.312 376.136 364.109 385.11 356.559C394.34 348.552 395.878 340.316 392.289 316.752C385.623 272.598 374.597 242.399 354.086 210.828C347.676 200.762 338.702 185.205 334.599 176.512C327.676 162.556 324.6 158.896 310.754 149.516C301.78 143.796 289.986 135.103 284.602 130.756C272.038 120.69 265.372 120.461 244.86 129.841Z" fill="white"/>
</svg>
