<svg width="800" height="800" viewBox="0 0 800 800" fill="none" xmlns="http://www.w3.org/2000/svg">
<g clip-path="url(#clip0_55_91)">
<path d="M800 0H0V800H800V0Z" fill="white" fill-opacity="0.01"/>
<path d="M683.333 66.6667H116.667C89.0525 66.6667 66.6666 89.0526 66.6666 116.667V683.333C66.6666 710.948 89.0525 733.333 116.667 733.333H683.333C710.948 733.333 733.333 710.948 733.333 683.333V116.667C733.333 89.0526 710.948 66.6667 683.333 66.6667Z" fill="#064931" stroke="white" stroke-width="66.6667" stroke-linejoin="round"/>
<path d="M200 317.562C255.415 250.895 322.082 217.562 400 217.562C477.918 217.562 544.585 250.895 600 317.562" stroke="white" stroke-width="66.6667" stroke-linecap="round"/>
<path d="M400 516.667C427.615 516.667 450 494.282 450 466.667C450 439.052 427.615 416.667 400 416.667C372.385 416.667 350 439.052 350 466.667C350 494.282 372.385 516.667 400 516.667Z" fill="white"/>
<path d="M316.667 350L400.138 466.667" stroke="white" stroke-width="66.6667" stroke-linecap="round"/>
</g>
<defs>
<clipPath id="clip0_55_91">
<rect width="800" height="800" fill="white"/>
</clipPath>
</defs>
</svg>
